<svg xmlns="http://www.w3.org/2000/svg" viewBox="0 0 1536 1265" preserveAspectRatio="xMidYMid" width="1536" height="1265" xmlns:xlink="http://www.w3.org/1999/xlink" style="shape-rendering:auto;display:block;background-position-x:0%;background-position-y:0%;background-size:auto;background-origin:padding-box;background-clip:border-box;background:scroll rgba(0, 0, 0, 0) none  repeat;width:1536px;height:1265px;;animation:none"><g><linearGradient y2="0" y1="0" x2="1" x1="0" id="lg-s45y8q7f8rm"><stop offset="0" stop-color="#ed4690"></stop>

  
<stop offset="1" stop-color="#5522cc"></stop></linearGradient>
<path opacity="0.4" fill="url(#lg-s45y8q7f8rm)" d="M 0 0 L 0 912.25 Q 256 710.74 512 677.31 T 1024 437.65 T 1536 169.92 L 1536 0 Z" style="fill:url('#lg-s45y8q7f8rm');opacity:0.4;;animation:none"></path>
<path opacity="0.4" fill="url(#lg-s45y8q7f8rm)" d="M 0 0 L 0 903.436 Q 256 649.732 512 623.367 T 1024 372.45 T 1536 169.055 L 1536 0 Z" style="fill:url('#lg-s45y8q7f8rm');opacity:0.4;;animation:none"></path>
<path opacity="0.4" fill="url(#lg-s45y8q7f8rm)" d="M 0 0 L 0 881.146 Q 256 701.167 512 682.129 T 1024 456.296 T 1536 227.449 L 1536 0 Z" style="fill:url('#lg-s45y8q7f8rm');opacity:0.4;;animation:none"></path>
<path opacity="0.4" fill="url(#lg-s45y8q7f8rm)" d="M 0 0 L 0 932.068 Q 256 656.996 512 622.416 T 1024 361.45 T 1536 135.88 L 1536 0 Z" style="fill:url('#lg-s45y8q7f8rm');opacity:0.4;;animation:none"></path>
<path opacity="0.4" fill="url(#lg-s45y8q7f8rm)" d="M 0 0 L 0 909.412 Q 256 695.659 512 673.998 T 1024 426.909 T 1536 163.221 L 1536 0 Z" style="fill:url('#lg-s45y8q7f8rm');opacity:0.4;;animation:none"></path>
<g></g></g><!-- [ldio] generated by https://loading.io --></svg>